<?xml version="1.0" encoding="utf-8"?>
<!-- Generator: Adobe Illustrator 16.0.0, SVG Export Plug-In . SVG Version: 6.00 Build 0)  -->
<!DOCTYPE svg PUBLIC "-//W3C//DTD SVG 1.1//EN" "http://www.w3.org/Graphics/SVG/1.1/DTD/svg11.dtd">
<svg version="1.1" id="Layer_1" xmlns="http://www.w3.org/2000/svg" xmlns:xlink="http://www.w3.org/1999/xlink" x="0px" y="0px"
	 width="1400px" height="1400px" viewBox="0 0 1400 1400" enable-background="new 0 0 1400 1400" xml:space="preserve">
<g>
	<rect x="0" fill="#FFFFFF" width="1400" height="1400"/>
	<g>
		<path fill="#35C1FF" d="M507.6,1014L371.1,717l678.1-23.7l261.4,567.6c2.3-7.3,3.6-15.1,3.6-23.2V619.5V162.3
			c0-42.3-34.3-76.5-76.5-76.5H162.3c-42.3,0-76.5,34.3-76.5,76.5v464.2v611.2c0,42.3,34.3,76.5,76.5,76.5h456l-118.9-258.3
			L507.6,1014z"/>
		<path fill="#59CCFF" d="M238.5,631.1h931.7c3.5-4.7,5.6-10.4,5.6-16.6c0-15.4-12.5-27.9-27.9-27.9h-101.7
			c-7.5,0-13.7-6.1-13.7-13.7c0-7.5,6.1-13.7,13.7-13.7h21.1c15.4,0,27.9-12.5,27.9-27.9c0-15.4-12.5-27.9-27.9-27.9h-3
			c-7.5,0-13.7-6.1-13.7-13.7c0-2.7,0.8-5.4,2.3-7.6c2.6-3.8,6.8-6,11.3-6h30.3c10.9,0,19.7-8.8,19.7-19.7
			c0-10.9-8.9-19.7-19.7-19.7H1027c-17.4,0-31.8-13.1-33.4-30.4c-0.1-1-0.2-2.1-0.2-3.1c0-18.5,15-33.5,33.5-33.5h5.5
			c15.4,0,27.9-12.5,27.9-27.9c0-15.4-12.5-27.9-27.9-27.9h-13.7c-14,0-25.3-11.4-25.3-25.3c0-15.4-12.5-27.9-27.9-27.9h-10.9
			c-14,0-25.3-11.4-25.3-25.3c0-15.4-12.5-27.9-27.9-27.9H767.2c-9.5,0-17.2-7.7-17.2-17.2c0-10.9-8.9-19.7-19.7-19.7H565
			c-10.9,0-19.7,8.8-19.7,19.7c0,9.5-7.7,17.2-17.2,17.2H425.2c-15.4,0-27.9,12.5-27.9,27.9c0,15.4,12.5,27.9,27.9,27.9h19.1
			c14,0,25.4,11.4,25.4,25.4c0,14-11.4,25.4-25.4,25.4H343c-12,0-21.8,9.8-21.8,21.8c0,12,9.8,21.8,21.8,21.8h5.4
			c10.4,0,18.8,8.5,18.8,18.8c0,10.4-8.5,18.8-18.8,18.8h-60.9c-8.1,0-15.4,4.5-19,11.7c-1.6,3-2.3,6.3-2.3,9.7
			c0,11.8,9.6,21.4,21.4,21.4h28.5c6.6,0,11.9,5.3,11.9,11.9c0,6.6-5.3,11.9-11.9,11.9h-6.3c-8.9,0-16.2,7.3-16.2,16.2
			c0,2.5-0.7,5-2,7.1c-2.5,4.1-6.9,6.6-11.7,6.6h-6.5c-11.8,0-21.4,9.6-21.4,21.4c0,11.8,9.6,21.4,21.4,21.4h1.5
			c7.5,0,13.7,6.1,13.7,13.7c0,7.5-6.1,13.7-13.7,13.7h-20.6c-16.5,0-29.9,13.4-29.9,29.9c-0.3,11.1,1.5,26.7,12.2,37.8
			C237.1,629.9,237.8,630.5,238.5,631.1z"/>
		<path fill="#30ADE6" d="M1049.2,693.3L371.1,717l136.6,297l-8.3,42l118.9,258.3h619.4c34.2,0,63.1-22.4,72.9-53.4L1049.2,693.3z"
			/>
		<g>
			<polygon fill="#FFFFFF" points="917.4,884.3 917.4,884.3 917.4,884.3 			"/>
			<polygon fill="#FFFFFF" points="563.7,494.2 618.1,380.1 652.3,409.2 633.3,292.8 586.7,344.8 543.8,457.4 496.3,477.3 
				559.8,517.7 			"/>
			<polygon fill="#FFFFFF" points="461.1,583 405.9,583 390.6,627.4 425.2,627.4 			"/>
			<polygon fill="#FAFAFA" points="541.8,627.4 559.8,517.7 496.3,477.3 461.1,583 425.2,627.4 			"/>
			<polygon fill="#FFFFFF" points="648.7,502.6 563.7,494.2 559.8,517.7 541.8,627.4 706.5,627.4 706.6,627.4 697.7,529.4 			"/>
			<polygon fill="#F0F9FF" points="652.5,410.7 652.3,409.2 618.1,380.1 563.7,494.2 648.7,502.6 			"/>
			<polygon fill="#B1DDF0" points="779.6,486.5 697.7,529.4 706.6,627.4 821,627.4 821.1,627.4 			"/>
			<polygon fill="#C5E7F6" points="652.5,410.7 648.7,502.6 697.7,529.4 779.6,486.5 731.4,461.2 700,406.9 672.4,341 633.4,292.8 
				633.3,292.8 652.3,409.2 			"/>
			<polygon fill="#FFFFFF" points="1024.7,627.4 1002.5,570 942.8,566.9 967.7,627.4 			"/>
			<polygon fill="#B1DDF0" points="942.8,566.9 908.3,495.7 908.1,495.6 878.8,541.3 905.2,627.4 967.7,627.4 			"/>
			<polygon fill="#C5E7F6" points="846.3,465.8 809.5,375.5 780.4,318 746.7,305.8 746,307.4 781.8,438.5 			"/>
			<polygon fill="#FFFFFF" points="908.1,495.6 846.3,465.8 781.8,438.5 746,307.4 700,406.9 731.4,461.2 779.6,486.5 821.1,627.4 
				905.2,627.4 905.2,627.4 878.8,541.3 			"/>
			<polygon fill="#B1DDF0" points="779.6,1186.9 821.1,1024.9 715.7,1194.9 			"/>
			<polygon fill="#FFFFFF" points="499.3,1055.5 559.8,1109.9 503.2,918.1 			"/>
			<polygon fill="#B1DDF0" points="967.7,627.4 905.2,627.4 905.2,627.4 932.8,727 917.4,884.3 919.8,880.9 978,740.8 			"/>
			<polygon fill="#F5F5F5" points="905.2,627.4 821.1,627.4 821,627.4 855.8,768 917.4,884.3 917.4,884.3 932.8,727 			"/>
			<polygon fill="#F5F5F5" points="541.8,627.4 425.2,627.4 390.6,627.4 371.1,652.7 371.1,717 425.2,768 503.2,711.3 			"/>
			<polygon fill="#F0F9FF" points="1024.7,627.4 967.7,627.4 978,740.8 1049.2,693.3 			"/>
			<polygon fill="#B1DDF0" points="855.8,768 821,627.4 706.6,627.4 706.5,627.4 722.6,836.5 796.1,857.2 821.1,1024.9 917.4,884.3 
							"/>
			<polygon fill="#B1DDF0" points="652.3,807.8 633.3,704.4 590.5,768 551.4,791.7 500.2,912.4 503.2,918.1 559.8,1109.9 
				574.3,1152.4 633.3,1081.2 608.1,911.2 			"/>
			<polygon fill="#F0F9FF" points="706.5,627.4 541.8,627.4 503.2,711.3 425.2,768 500.2,912.4 551.4,791.7 590.5,768 633.3,704.4 
				652.3,807.8 608.1,911.2 633.3,1081.2 680.1,1107.6 722.6,918.1 722.6,836.5 			"/>
			<polygon fill="#FFFFFF" points="722.6,836.5 722.6,918.1 680.1,1107.6 715.7,1194.9 821.1,1024.9 796.1,857.2 			"/>
		</g>
		<path fill="#FFFFFF" d="M527.3,270.8h-42.9c-2-23.3-21.3-41.7-45.2-41.7c-23.8,0-43.2,18.4-45.2,41.7H286
			c-16.2,0-29.3,13.1-29.3,29.3c0,16.2,13.1,29.3,29.3,29.3h23.8c4.1,15.4,18,26.9,34.8,26.9c16.7,0,30.7-11.4,34.8-26.9h147.9
			c16.2,0,29.3-13.1,29.3-29.3C556.6,284,543.5,270.8,527.3,270.8z"/>
		<path fill="#FFFFFF" d="M1152.1,486.5c0,11-8.9,19.9-19.9,19.9h-87.6c-11,0-19.9-8.9-19.9-19.9l0,0c0-11,8.9-19.9,19.9-19.9h87.6
			C1143.2,466.6,1152.1,475.5,1152.1,486.5L1152.1,486.5z"/>
		<path fill="#FFFFFF" d="M313.5,519.2h-19.7c0.1-0.9,0.3-1.8,0.3-2.8c0-17.9-14.5-32.4-32.4-32.4c-17.9,0-32.4,14.5-32.4,32.4
			c0,1,0.2,1.9,0.3,2.8h-19.7c-13.2,0-23.8,10.7-23.8,23.8c0,13.2,10.7,23.8,23.8,23.8h103.6c13.1,0,23.8-10.7,23.8-23.8
			C337.4,529.9,326.7,519.2,313.5,519.2z"/>
		<path fill="#FFFFFF" d="M1100,323.1h-18.3c0.1-0.9,0.3-1.7,0.3-2.6c0-16.7-13.5-30.2-30.2-30.2c-16.7,0-30.2,13.5-30.2,30.2
			c0,0.9,0.2,1.7,0.3,2.6h-18.3c-12.2,0-22.2,9.9-22.2,22.2c0,12.2,9.9,22.2,22.2,22.2h96.3c12.2,0,22.2-9.9,22.2-22.2
			C1122.1,333,1112.2,323.1,1100,323.1z"/>
		<path fill="#FFFFFF" d="M1232.9,486.5c0,11-8.9,19.9-19.9,19.9c-11,0-19.9-8.9-19.9-19.9c0-11,8.9-19.9,19.9-19.9
			C1224,466.6,1232.9,475.5,1232.9,486.5z"/>
		<path fill="#FFFFFF" d="M926.6,198.4h-47.7c0-18-14.6-32.6-32.6-32.6c-18,0-32.6,14.6-32.6,32.6H793c-12.3,0-22.2,10-22.2,22.2
			c0,12.3,10,22.2,22.2,22.2h133.5c12.3,0,22.2-10,22.2-22.2C948.8,208.4,938.8,198.4,926.6,198.4z"/>
		<g opacity="0.2">
			<path fill="#5D5D5D" d="M230.2,928.4c-9.3,0-18.6-2.4-25.8-7.2l-8.1-5.4c-2.6-1.7-3.3-5.2-1.6-7.8s5.2-3.3,7.8-1.6l8.1,5.4
				c10.6,7.1,28.5,7.1,39.1,0l8.1-5.4c2.6-1.7,6.1-1,7.8,1.6c1.7,2.6,1,6.1-1.6,7.8l-8.1,5.4C248.8,926,239.5,928.4,230.2,928.4z"/>
		</g>
		<g opacity="0.2">
			<path fill="#5D5D5D" d="M347.4,765.4c-10.2,0-20.5-2.7-28.5-8l-9-6c-11.7-7.8-31.5-7.8-43.2,0l-9,6c-16,10.7-41,10.7-56.9,0l-9-6
				c-11.7-7.8-31.5-7.8-43.2,0l-9,6c-2.8,1.9-6.7,1.1-8.6-1.7c-1.9-2.8-1.1-6.7,1.7-8.6l9-6c16-10.6,41-10.6,56.9,0l9,6
				c11.7,7.8,31.5,7.8,43.2,0l9-6c16-10.6,41-10.6,56.9,0l9,6c11.7,7.8,31.5,7.8,43.2,0l9-6c16-10.6,41-10.6,56.9,0l9,6
				c2.8,1.9,3.6,5.7,1.7,8.6c-1.9,2.8-5.7,3.6-8.6,1.7l-9-6c-11.7-7.8-31.5-7.8-43.2,0l-9,6C367.9,762.7,357.6,765.4,347.4,765.4z"
				/>
		</g>
		<g opacity="0.2">
			<path fill="#5D5D5D" d="M1164.7,1077.5c-10.2,0-20.5-2.7-28.5-8l-9-6c-11.7-7.8-31.5-7.8-43.2,0l-9,6c-16,10.7-41,10.7-56.9,0
				l-9-6c-11.7-7.8-31.5-7.8-43.2,0l-9,6c-2.8,1.9-6.7,1.1-8.6-1.7c-1.9-2.8-1.1-6.7,1.7-8.6l9-6c16-10.7,41-10.7,56.9,0l9,6
				c11.7,7.8,31.5,7.8,43.2,0l9-6c16-10.6,41-10.7,56.9,0l9,6c11.7,7.8,31.5,7.8,43.2,0l9-6c16-10.7,41-10.7,56.9,0l9,6
				c2.8,1.9,3.6,5.7,1.7,8.6c-1.9,2.8-5.7,3.6-8.6,1.7l-9-6c-11.7-7.8-31.5-7.8-43.2,0l-9,6
				C1185.2,1074.8,1174.9,1077.5,1164.7,1077.5z"/>
		</g>
		<g opacity="0.2">
			<path fill="#5D5D5D" d="M229.3,849.5c-10.2,0-20.5-2.7-28.5-8l-9-6c-11.7-7.8-31.5-7.8-43.2,0l-9,6c-2.8,1.9-6.7,1.1-8.6-1.7
				c-1.9-2.8-1.1-6.7,1.7-8.6l9-6c16-10.7,41-10.7,56.9,0l9,6c11.7,7.8,31.5,7.8,43.2,0l9-6c16-10.7,41-10.7,56.9,0l9,6
				c2.8,1.9,3.6,5.7,1.7,8.6c-1.9,2.8-5.7,3.6-8.6,1.7l-9-6c-11.7-7.8-31.5-7.8-43.2,0l-9,6C249.8,846.8,239.6,849.5,229.3,849.5z"
				/>
		</g>
		<g opacity="0.2">
			<path fill="#5D5D5D" d="M1164.7,1004.6c-10.2,0-20.5-2.7-28.5-8l-9-6c-11.7-7.8-31.5-7.8-43.2,0l-9,6c-2.8,1.9-6.7,1.1-8.6-1.7
				c-1.9-2.8-1.1-6.7,1.7-8.6l9-6c16-10.7,41-10.7,56.9,0l9,6c11.7,7.8,31.5,7.8,43.2,0l9-6c16-10.7,41-10.7,56.9,0l9,6
				c2.8,1.9,3.6,5.7,1.7,8.6c-1.9,2.8-5.7,3.6-8.6,1.7l-9-6c-11.7-7.8-31.5-7.8-43.2,0l-9,6
				C1185.2,1001.9,1174.9,1004.6,1164.7,1004.6z"/>
		</g>
		<g opacity="0.2">
			<path fill="#5D5D5D" d="M1164.7,1150.3c-10.2,0-20.5-2.7-28.5-8l-9-6c-11.7-7.8-31.5-7.8-43.2,0l-9,6c-2.8,1.9-6.7,1.1-8.6-1.7
				c-1.9-2.8-1.1-6.7,1.7-8.6l9-6c16-10.7,41-10.7,56.9,0l9,6c11.7,7.8,31.5,7.8,43.2,0l9-6c16-10.7,41-10.7,56.9,0l9,6
				c2.8,1.9,3.6,5.7,1.7,8.6c-1.9,2.8-5.7,3.6-8.6,1.7l-9-6c-11.7-7.8-31.5-7.8-43.2,0l-9,6
				C1185.2,1147.7,1174.9,1150.3,1164.7,1150.3z"/>
		</g>
		<linearGradient id="SVGID_1_" gradientUnits="userSpaceOnUse" x1="699.9966" y1="616.5586" x2="699.9966" y2="1314.2036">
			<stop  offset="0" style="stop-color:#00595D"/>
			<stop  offset="1" style="stop-color:#000505"/>
		</linearGradient>
		<path opacity="0.5" fill="url(#SVGID_1_)" d="M1260.5,623c-12.8-8.6-33.9-8.6-46.7,0c-12.8,8.6-33.9,8.6-46.7,0
			c-12.8-8.6-33.9-8.6-46.7,0c-12.9,8.6-33.9,8.6-46.7,0c-12.8-8.6-33.9-8.6-46.7,0c-12.8,8.6-33.9,8.6-46.7,0
			c-12.8-8.6-33.9-8.6-46.7,0c-12.8,8.6-33.9,8.6-46.7,0c-12.8-8.6-33.9-8.6-46.7,0c-12.8,8.6-33.9,8.6-46.7,0
			c-12.8-8.6-33.9-8.6-46.7,0c-12.8,8.6-33.9,8.6-46.7,0c-12.8-8.6-33.9-8.6-46.7,0c-12.8,8.6-33.9,8.6-46.7,0
			c-12.8-8.6-33.9-8.6-46.7,0c-12.8,8.6-33.9,8.6-46.7,0c-12.8-8.6-33.9-8.6-46.7,0c-12.8,8.6-33.9,8.6-46.7,0
			c-12.8-8.6-33.9-8.6-46.7,0c-12.8,8.6-33.9,8.6-46.7,0c-12.8-8.6-33.9-8.6-46.7,0c-12.8,8.6-33.9,8.6-46.7,0
			c-12.8-8.6-33.9-8.6-46.7,0c-12.8,8.6-33.9,8.6-46.7,0c-12.8-8.6-33.9-8.6-46.7,0c-2.1,1.4-4.5,2.5-7,3.5v611.2
			c0,42.3,34.3,76.5,76.5,76.5h1075.4c42.2,0,76.5-34.3,76.5-76.5V619.5c-2.5,1-4.9,2.1-7,3.5C1294.3,631.7,1273.3,631.7,1260.5,623
			z"/>
		<path opacity="0.3" fill="#5D5D5D" d="M195.3,1049l33.8,19.5c76-72.5,143.4,1.5,143.5,1.6h0l0,0h0c-0.1,0.1-67.5,74.1-143.5,1.6
			l-33.8,19.5V1049z"/>
		<path opacity="0.3" fill="#5D5D5D" d="M1215.8,743.3l-19.5,11.3c-43.8-41.8-82.6,0.8-82.7,0.9h0l0,0h0c0.1,0.1,38.9,42.7,82.7,0.9
			l19.5,11.2V743.3z"/>
		<path opacity="0.3" fill="#5D5D5D" d="M1272.4,844.3l-20.5,11.9c-46.2-44-87.1,0.9-87.2,1h0l0,0h0c0.1,0.1,41,45,87.2,1l20.5,11.8
			V844.3z"/>
		<path opacity="0.3" fill="#5D5D5D" d="M962,1196.6l-20.5,11.9c-46.2-44-87.1,0.9-87.2,1h0l0,0h0c0.1,0.1,41,45,87.2,1l20.5,11.8
			V1196.6z"/>
		<path opacity="0.1" fill="#5D5D5D" d="M1054,1182l-6.1,3.5c-13.7-13.1-25.9,0.3-25.9,0.3h0l0,0h0c0,0,12.2,13.4,25.9,0.3l6.1,3.5
			V1182z"/>
		<path opacity="0.1" fill="#5D5D5D" d="M400.5,1239.6l6.1-3.5c13.7,13.1,25.9-0.3,25.9-0.3l0,0l0,0l0,0c0,0-12.2-13.4-25.9-0.3
			l-6.1-3.5V1239.6z"/>
		<path opacity="0.1" fill="#5D5D5D" d="M1156.3,1247.6l-9.6,5.6c-21.7-20.7-40.9,0.4-41,0.5l0,0l0,0l0,0c0,0,19.3,21.1,41,0.5
			l9.6,5.6V1247.6z"/>
		<path opacity="0.1" fill="#5D5D5D" d="M1104.7,861.5l-9.6,5.6c-21.7-20.7-40.9,0.4-41,0.5h0l0,0h0c0,0,19.3,21.2,41,0.5l9.6,5.6
			V861.5z"/>
		<path opacity="0.1" fill="#5D5D5D" d="M1282.7,784.5l-9.6,5.6c-21.7-20.7-40.9,0.4-41,0.5h0l0,0h0c0,0,19.3,21.1,41,0.5l9.6,5.6
			V784.5z"/>
		<path opacity="0.1" fill="#5D5D5D" d="M1170.1,1189.1l-9.2,5.3c-20.7-19.8-39.1,0.4-39.2,0.4h0l0,0h0c0,0,18.4,20.2,39.2,0.4
			l9.2,5.3V1189.1z"/>
		<path opacity="0.1" fill="#5D5D5D" d="M996,1259.2l-10.4,6c-23.3-22.3-44,0.4-44.1,0.5h0l0,0h0c0,0,20.7,22.8,44.1,0.5l10.4,6
			V1259.2z"/>
		<path opacity="0.1" fill="#5D5D5D" d="M203,1186.3l10.4-6c23.3,22.3,44.1-0.4,44.1-0.5h0l0,0h0c0,0-20.7-22.8-44.1-0.5l-10.4-6
			V1186.3z"/>
		<path opacity="0.1" fill="#5D5D5D" d="M353.2,998.9l16.8-9.7c37.7,36,71.1-0.7,71.2-0.8h0l0,0h0c0-0.1-33.5-36.8-71.2-0.8
			l-16.8-9.7V998.9z"/>
		<path opacity="0.3" fill="#5D5D5D" d="M319.8,1148.5l23.1,13.4c52-49.6,98.2,1,98.3,1.1h0l0,0h0c-0.1,0.1-46.2,50.7-98.3,1.1
			l-23.1,13.3V1148.5z"/>
	</g>
</g>
</svg>
